<?xml version="1.0" encoding="UTF-8"?>
<svg xmlns="http://www.w3.org/2000/svg" xmlns:xlink="http://www.w3.org/1999/xlink" width="48px" height="48px" viewBox="0 0 48 48" version="1.1">
<g id="surface1">
<path style=" stroke:none;fill-rule:nonzero;fill:rgb(100%,100%,100%);fill-opacity:1;" d="M 0 0 L 0 2.078125 L 0.171875 2.078125 C 0.574219 1.164062 1.117188 0.5 2.078125 0.171875 Z M 0 0 "/>
<path style=" stroke:none;fill-rule:nonzero;fill:rgb(63.137255%,77.254902%,23.137255%);fill-opacity:1;" d="M 2.078125 0.09375 C 1.046875 0.34375 0.292969 1.226562 0.0664062 2.253906 C -0.488281 4.800781 0 7.960938 0 10.570312 L 0 43.320312 C 0 44.378906 -0.1875 45.65625 0.363281 46.613281 C 1.726562 48.976562 6.691406 48 9.011719 48 L 25.820312 48 C 29.132812 48 32.640625 48.351562 35.871094 47.5 C 37.464844 47.078125 39 46.425781 40.375 45.511719 C 50.738281 38.636719 48 24.933594 48 14.210938 L 48 4.851562 C 48 3.550781 48.265625 1.921875 47.269531 0.902344 C 46.277344 -0.105469 44.960938 0 43.667969 0 L 12.996094 0 C 9.621094 0 5.355469 -0.703125 2.078125 0.09375 Z M 2.078125 0.09375 "/>
<path style=" stroke:none;fill-rule:nonzero;fill:rgb(100%,100%,100%);fill-opacity:1;" d="M 45.921875 0 L 45.921875 0.171875 C 46.835938 0.574219 47.5 1.117188 47.828125 2.078125 L 48 2.078125 L 48 0 Z M 45.921875 0 "/>
<path style=" stroke:none;fill-rule:nonzero;fill:rgb(81.960784%,89.019608%,61.568627%);fill-opacity:1;" d="M 2.945312 1.90625 L 2.945312 2.078125 L 3.464844 2.078125 Z M 2.945312 1.90625 "/>
<path style=" stroke:none;fill-rule:nonzero;fill:rgb(100%,100%,100%);fill-opacity:1;" d="M 23.394531 46.09375 L 23.394531 45.921875 C 21.414062 44.816406 19.703125 43.191406 18.3125 41.414062 C 8.941406 29.457031 20.640625 12.070312 35.175781 15.324219 C 37.257812 15.789062 39.167969 16.683594 40.894531 17.921875 C 42.914062 19.371094 44.703125 21.210938 45.921875 23.394531 C 46.457031 22.09375 46.070312 19.917969 46.058594 18.507812 C 46.03125 14.789062 46.089844 11.070312 46.054688 7.351562 C 46.042969 6.074219 46.5625 3.304688 45.5 2.378906 C 44.773438 1.746094 43.496094 1.949219 42.605469 1.949219 L 5.4375 1.949219 C 4.566406 1.949219 3.402344 1.773438 2.636719 2.277344 C 1.824219 2.816406 1.929688 4.027344 1.929688 4.875 L 1.933594 11.710938 C 1.933594 20.125 1.976562 28.542969 1.929688 36.957031 C 1.917969 38.988281 1.941406 41.015625 1.933594 43.046875 C 1.929688 43.863281 1.796875 45.007812 2.5 45.59375 C 3.765625 46.652344 6.773438 46.09375 8.316406 46.09375 C 13.339844 46.09375 18.375 45.976562 23.394531 46.09375 Z M 23.394531 46.09375 "/>
<path style=" stroke:none;fill-rule:nonzero;fill:rgb(81.960784%,89.019608%,61.568627%);fill-opacity:1;" d="M 3.8125 1.90625 L 3.984375 2.078125 L 3.8125 1.90625 M 4.332031 1.90625 L 4.503906 2.078125 L 4.332031 1.90625 M 4.851562 1.90625 L 5.023438 2.078125 L 4.851562 1.90625 M 5.371094 1.90625 L 5.546875 2.078125 L 5.371094 1.90625 M 5.890625 1.90625 L 6.066406 2.078125 L 5.890625 1.90625 M 6.410156 1.90625 L 6.585938 2.078125 L 6.410156 1.90625 M 6.929688 1.90625 L 7.105469 2.078125 L 6.929688 1.90625 M 7.453125 1.90625 L 7.625 2.078125 L 7.453125 1.90625 M 7.972656 1.90625 L 8.144531 2.078125 L 7.972656 1.90625 M 8.492188 1.90625 L 8.664062 2.078125 L 8.492188 1.90625 M 9.011719 1.90625 L 9.183594 2.078125 L 9.011719 1.90625 M 9.53125 1.90625 L 9.703125 2.078125 L 9.53125 1.90625 M 10.050781 1.90625 L 10.222656 2.078125 L 10.050781 1.90625 M 10.570312 1.90625 L 10.742188 2.078125 L 10.570312 1.90625 M 11.089844 1.90625 L 11.261719 2.078125 L 11.089844 1.90625 M 11.609375 1.90625 L 11.785156 2.078125 L 11.609375 1.90625 M 12.128906 1.90625 L 12.304688 2.078125 L 12.128906 1.90625 M 12.648438 1.90625 L 12.824219 2.078125 L 12.648438 1.90625 M 13.167969 1.90625 L 13.34375 2.078125 L 13.167969 1.90625 M 13.691406 1.90625 L 13.863281 2.078125 L 13.691406 1.90625 M 14.210938 1.90625 L 14.382812 2.078125 L 14.210938 1.90625 M 14.730469 1.90625 L 14.902344 2.078125 L 14.730469 1.90625 M 15.25 1.90625 L 15.421875 2.078125 L 15.25 1.90625 M 15.769531 1.90625 L 15.941406 2.078125 L 15.769531 1.90625 M 16.289062 1.90625 L 16.460938 2.078125 L 16.289062 1.90625 M 16.808594 1.90625 L 16.980469 2.078125 L 16.808594 1.90625 M 17.328125 1.90625 L 17.5 2.078125 L 17.328125 1.90625 M 17.847656 1.90625 L 18.023438 2.078125 L 17.847656 1.90625 M 18.367188 1.90625 L 18.542969 2.078125 L 18.367188 1.90625 M 18.886719 1.90625 L 19.0625 2.078125 L 18.886719 1.90625 M 19.40625 1.90625 L 19.582031 2.078125 L 19.40625 1.90625 M 19.929688 1.90625 L 20.101562 2.078125 L 19.929688 1.90625 M 20.449219 1.90625 L 20.621094 2.078125 L 20.449219 1.90625 M 20.96875 1.90625 L 21.140625 2.078125 L 20.96875 1.90625 M 21.488281 1.90625 L 21.660156 2.078125 L 21.488281 1.90625 M 22.007812 1.90625 L 22.179688 2.078125 L 22.007812 1.90625 M 22.527344 1.90625 L 22.699219 2.078125 L 22.527344 1.90625 M 23.046875 1.90625 L 23.21875 2.078125 L 23.046875 1.90625 M 23.566406 1.90625 L 23.738281 2.078125 L 23.566406 1.90625 M 24.085938 1.90625 L 24.261719 2.078125 L 24.085938 1.90625 M 24.605469 1.90625 L 24.78125 2.078125 L 24.605469 1.90625 M 25.125 1.90625 L 25.300781 2.078125 L 25.125 1.90625 M 25.644531 1.90625 L 25.820312 2.078125 L 25.644531 1.90625 M 26.167969 1.90625 L 26.339844 2.078125 L 26.167969 1.90625 M 26.6875 1.90625 L 26.859375 2.078125 L 26.6875 1.90625 M 27.207031 1.90625 L 27.378906 2.078125 L 27.207031 1.90625 M 27.726562 1.90625 L 27.898438 2.078125 L 27.726562 1.90625 M 28.246094 1.90625 L 28.417969 2.078125 L 28.246094 1.90625 M 28.765625 1.90625 L 28.9375 2.078125 L 28.765625 1.90625 M 29.285156 1.90625 L 29.457031 2.078125 L 29.285156 1.90625 M 29.804688 1.90625 L 29.976562 2.078125 L 29.804688 1.90625 M 30.324219 1.90625 L 30.5 2.078125 L 30.324219 1.90625 M 30.84375 1.90625 L 31.019531 2.078125 L 30.84375 1.90625 M 31.363281 1.90625 L 31.539062 2.078125 L 31.363281 1.90625 M 31.882812 1.90625 L 32.058594 2.078125 L 31.882812 1.90625 M 32.40625 1.90625 L 32.578125 2.078125 L 32.40625 1.90625 M 32.925781 1.90625 L 33.097656 2.078125 L 32.925781 1.90625 M 33.445312 1.90625 L 33.617188 2.078125 L 33.445312 1.90625 M 33.964844 1.90625 L 34.136719 2.078125 L 33.964844 1.90625 M 34.484375 1.90625 L 34.65625 2.078125 L 34.484375 1.90625 M 35.003906 1.90625 L 35.175781 2.078125 L 35.003906 1.90625 M 35.523438 1.90625 L 35.695312 2.078125 L 35.523438 1.90625 M 36.042969 1.90625 L 36.214844 2.078125 L 36.042969 1.90625 M 36.5625 1.90625 L 36.738281 2.078125 L 36.5625 1.90625 M 37.082031 1.90625 L 37.257812 2.078125 L 37.082031 1.90625 M 37.601562 1.90625 L 37.777344 2.078125 L 37.601562 1.90625 M 38.121094 1.90625 L 38.296875 2.078125 L 38.121094 1.90625 M 38.644531 1.90625 L 38.816406 2.078125 L 38.644531 1.90625 M 39.164062 1.90625 L 39.335938 2.078125 L 39.164062 1.90625 M 39.683594 1.90625 L 39.855469 2.078125 L 39.683594 1.90625 M 40.203125 1.90625 L 40.375 2.078125 L 40.203125 1.90625 M 40.722656 1.90625 L 40.894531 2.078125 L 40.722656 1.90625 M 41.242188 1.90625 L 41.414062 2.078125 L 41.242188 1.90625 M 41.761719 1.90625 L 41.933594 2.078125 L 41.761719 1.90625 M 42.28125 1.90625 L 42.453125 2.078125 L 42.28125 1.90625 M 42.800781 1.90625 L 42.976562 2.078125 L 42.800781 1.90625 M 43.320312 1.90625 L 43.496094 2.078125 L 43.320312 1.90625 M 43.839844 1.90625 L 44.015625 2.078125 L 43.839844 1.90625 M 44.648438 1.964844 L 44.765625 2.023438 L 44.648438 1.964844 M 2.597656 2.078125 L 2.773438 2.253906 L 2.597656 2.078125 M 45.226562 2.078125 L 45.402344 2.253906 L 45.226562 2.078125 M 2.078125 2.597656 L 2.253906 2.773438 L 2.078125 2.597656 M 45.746094 2.597656 L 45.921875 2.773438 L 45.746094 2.597656 M 45.921875 2.945312 L 45.921875 3.464844 L 46.09375 3.464844 L 45.921875 2.945312 M 1.964844 3.234375 L 2.023438 3.351562 L 1.964844 3.234375 M 45.921875 3.8125 L 46.09375 3.984375 L 45.921875 3.8125 M 1.90625 4.332031 L 2.078125 4.503906 L 1.90625 4.332031 M 45.921875 4.503906 L 46.09375 4.679688 L 45.921875 4.503906 M 45.921875 5.023438 L 46.09375 5.199219 L 45.921875 5.023438 M 1.90625 5.371094 L 2.078125 5.546875 L 1.90625 5.371094 M 8.78125 5.429688 L 8.894531 5.488281 Z M 8.78125 5.429688 "/>
<path style=" stroke:none;fill-rule:nonzero;fill:rgb(63.137255%,77.254902%,23.137255%);fill-opacity:1;" d="M 11.957031 15.074219 L 11.785156 14.035156 C 10.824219 14.304688 9.832031 14.519531 8.835938 14.289062 C 5.757812 13.578125 5.121094 9.316406 7.292969 7.316406 C 8.5625 6.148438 10.253906 6.328125 11.785156 6.757812 L 11.957031 5.71875 C 10.03125 5.347656 8.058594 5.175781 6.417969 6.503906 C 4.050781 8.417969 4.082031 13.011719 6.757812 14.644531 C 8.441406 15.671875 10.140625 15.308594 11.957031 15.074219 Z M 11.957031 15.074219 "/>
<path style=" stroke:none;fill-rule:nonzero;fill:rgb(81.960784%,89.019608%,61.568627%);fill-opacity:1;" d="M 9.183594 5.371094 L 9.355469 5.546875 L 9.183594 5.371094 M 10.222656 5.371094 L 10.398438 5.546875 L 10.222656 5.371094 M 10.570312 5.371094 L 10.570312 5.546875 L 11.089844 5.546875 L 10.570312 5.371094 M 7.972656 5.546875 L 8.144531 5.71875 L 7.972656 5.546875 M 11.4375 5.546875 L 11.609375 5.71875 L 11.4375 5.546875 M 45.921875 5.546875 L 46.09375 5.71875 L 45.921875 5.546875 M 7.453125 5.71875 L 7.625 5.890625 L 7.453125 5.71875 M 7.105469 5.890625 L 7.277344 6.066406 L 7.105469 5.890625 M 11.957031 5.890625 L 12.128906 6.066406 L 11.957031 5.890625 M 6.757812 6.066406 L 6.929688 6.238281 L 6.757812 6.066406 M 6.585938 6.238281 L 6.757812 6.410156 L 6.585938 6.238281 M 45.921875 6.238281 L 46.09375 6.410156 L 45.921875 6.238281 M 1.90625 6.410156 L 2.078125 6.585938 L 1.90625 6.410156 M 8.664062 6.410156 L 8.664062 6.585938 L 9.355469 6.585938 L 8.664062 6.410156 M 10.398438 6.410156 L 10.398438 6.585938 L 10.917969 6.585938 L 10.398438 6.410156 M 11.785156 6.410156 L 11.957031 6.585938 L 11.785156 6.410156 M 8.261719 6.644531 L 8.375 6.699219 L 8.261719 6.644531 M 11.378906 6.644531 L 11.496094 6.699219 L 11.378906 6.644531 M 7.796875 6.757812 L 7.972656 6.929688 L 7.796875 6.757812 M 45.921875 6.757812 L 46.09375 6.929688 L 45.921875 6.757812 M 7.453125 6.929688 L 7.625 7.105469 L 7.453125 6.929688 M 7.277344 7.105469 L 7.453125 7.277344 L 7.277344 7.105469 M 5.546875 7.277344 L 5.71875 7.453125 L 5.546875 7.277344 M 7.105469 7.277344 L 7.277344 7.453125 L 7.105469 7.277344 M 45.921875 7.277344 L 46.09375 7.453125 L 45.921875 7.277344 M 1.90625 7.453125 L 2.078125 7.625 L 1.90625 7.453125 M 5.371094 7.453125 L 5.546875 7.625 L 5.371094 7.453125 M 6.929688 7.453125 L 7.105469 7.625 L 6.929688 7.453125 M 6.757812 7.625 L 6.929688 7.796875 L 6.757812 7.625 M 5.199219 7.796875 L 5.371094 7.972656 L 5.199219 7.796875 M 45.921875 7.972656 L 46.09375 8.144531 L 45.921875 7.972656 M 5.023438 8.144531 L 5.199219 8.316406 L 5.023438 8.144531 M 6.410156 8.144531 L 6.585938 8.316406 L 6.410156 8.144531 M 14.730469 8.144531 L 14.730469 8.316406 L 15.25 8.316406 Z M 14.730469 8.144531 "/>
<path style=" stroke:none;fill-rule:nonzero;fill:rgb(63.137255%,77.254902%,23.137255%);fill-opacity:1;" d="M 13.863281 9.53125 C 15.277344 8.984375 16.9375 8.796875 17.15625 10.742188 C 16.03125 10.796875 14.609375 10.894531 13.75 11.703125 C 12.644531 12.738281 12.871094 14.753906 14.386719 15.25 C 15.5 15.617188 16.488281 15.074219 17.328125 14.382812 L 17.328125 15.25 L 18.367188 15.25 C 18.367188 13.496094 18.992188 10.230469 17.636719 8.878906 C 16.800781 8.042969 13.25 7.714844 13.863281 9.53125 Z M 13.863281 9.53125 "/>
<path style=" stroke:none;fill-rule:nonzero;fill:rgb(81.960784%,89.019608%,61.568627%);fill-opacity:1;" d="M 16.289062 8.144531 L 16.289062 8.316406 L 16.808594 8.316406 L 16.289062 8.144531 M 14.152344 8.375 L 14.265625 8.433594 L 14.152344 8.375 M 16.980469 8.316406 L 17.15625 8.492188 L 16.980469 8.316406 M 1.90625 8.492188 L 2.078125 8.664062 L 1.90625 8.492188 M 6.296875 8.605469 L 6.355469 8.722656 L 6.296875 8.605469 M 13.691406 8.492188 L 13.863281 8.664062 L 13.691406 8.492188 M 17.328125 8.492188 L 17.5 8.664062 L 17.328125 8.492188 M 45.921875 8.492188 L 46.09375 8.664062 L 45.921875 8.492188 M 4.851562 8.664062 L 5.023438 8.835938 L 4.851562 8.664062 M 13.515625 8.664062 L 13.691406 8.835938 L 13.515625 8.664062 M 17.5 8.664062 L 17.675781 8.835938 L 17.5 8.664062 M 17.675781 8.835938 L 17.847656 9.011719 L 17.675781 8.835938 M 6.066406 9.011719 L 6.066406 9.53125 L 6.238281 9.53125 L 6.066406 9.011719 M 13.515625 9.011719 L 13.691406 9.183594 L 13.515625 9.011719 M 14.902344 9.011719 L 14.902344 9.183594 L 16.117188 9.183594 L 14.902344 9.011719 M 17.847656 9.011719 L 18.023438 9.183594 L 17.847656 9.011719 M 45.921875 9.011719 L 46.09375 9.183594 L 45.921875 9.011719 M 4.679688 9.183594 L 4.679688 9.878906 L 4.851562 9.878906 L 4.679688 9.183594 M 14.382812 9.183594 L 14.554688 9.355469 L 14.382812 9.183594 M 16.289062 9.183594 L 16.460938 9.355469 L 16.289062 9.183594 M 13.691406 9.355469 L 13.863281 9.53125 L 13.691406 9.355469 M 16.636719 9.355469 L 16.808594 9.53125 L 16.636719 9.355469 M 18.023438 9.355469 L 18.195312 9.53125 L 18.023438 9.355469 M 1.90625 9.53125 L 2.078125 9.703125 L 1.90625 9.53125 M 16.808594 9.53125 L 16.980469 9.703125 L 16.808594 9.53125 M 45.921875 9.53125 L 46.09375 9.703125 L 45.921875 9.53125 M 5.890625 9.878906 L 6.066406 10.050781 L 5.890625 9.878906 M 16.980469 9.878906 L 16.980469 10.398438 L 17.15625 10.398438 L 16.980469 9.878906 M 18.253906 9.992188 L 18.308594 10.109375 L 18.253906 9.992188 M 45.921875 10.050781 L 46.09375 10.222656 L 45.921875 10.050781 M 5.890625 10.222656 L 6.066406 10.398438 L 5.890625 10.222656 M 1.90625 10.570312 L 2.078125 10.742188 L 1.90625 10.570312 M 5.890625 10.570312 L 6.066406 10.742188 L 5.890625 10.570312 M 16.980469 10.570312 L 17.15625 10.742188 L 16.980469 10.570312 M 45.921875 10.570312 L 46.09375 10.742188 L 45.921875 10.570312 M 15.421875 10.742188 L 15.421875 10.917969 L 16.117188 10.917969 L 15.421875 10.742188 M 16.289062 10.742188 L 16.460938 10.917969 L 16.289062 10.742188 M 4.679688 10.917969 L 4.851562 11.089844 L 4.679688 10.917969 M 15.019531 10.976562 L 15.132812 11.03125 L 15.019531 10.976562 M 14.382812 11.089844 L 14.554688 11.261719 L 14.382812 11.089844 M 45.921875 11.089844 L 46.09375 11.261719 L 45.921875 11.089844 M 4.679688 11.261719 L 4.679688 11.785156 L 4.851562 11.785156 L 4.679688 11.261719 M 14.035156 11.261719 L 14.210938 11.4375 L 14.035156 11.261719 M 6.121094 11.550781 L 6.179688 11.667969 L 6.121094 11.550781 M 13.863281 11.4375 L 14.035156 11.609375 L 13.863281 11.4375 M 1.90625 11.609375 L 2.078125 11.785156 L 1.90625 11.609375 M 15.59375 11.609375 L 15.59375 11.785156 L 16.289062 11.785156 Z M 15.59375 11.609375 "/>
<path style=" stroke:none;fill-rule:nonzero;fill:rgb(100%,100%,100%);fill-opacity:1;" d="M 17.15625 11.609375 C 16.683594 11.628906 16.230469 11.679688 15.769531 11.785156 C 12.40625 12.574219 16.089844 16.160156 17.042969 13.167969 C 17.199219 12.671875 17.15625 12.121094 17.15625 11.609375 Z M 17.15625 11.609375 "/>
<path style=" stroke:none;fill-rule:nonzero;fill:rgb(81.960784%,89.019608%,61.568627%);fill-opacity:1;" d="M 45.921875 11.609375 L 46.09375 11.785156 L 45.921875 11.609375 M 15.191406 11.839844 L 15.308594 11.898438 L 15.191406 11.839844 M 13.34375 11.957031 L 13.515625 12.128906 L 13.34375 11.957031 M 4.910156 12.246094 L 4.96875 12.359375 L 4.910156 12.246094 M 6.238281 12.128906 L 6.410156 12.304688 L 6.238281 12.128906 M 13.167969 12.128906 L 13.34375 12.304688 L 13.167969 12.128906 M 14.554688 12.128906 L 14.730469 12.304688 L 14.554688 12.128906 M 45.921875 12.128906 L 46.09375 12.304688 L 45.921875 12.128906 M 14.382812 12.304688 L 14.554688 12.476562 L 14.382812 12.304688 M 6.410156 12.476562 L 6.585938 12.648438 L 6.410156 12.476562 M 1.90625 12.648438 L 2.078125 12.824219 L 1.90625 12.648438 M 5.023438 12.648438 L 5.199219 12.824219 L 5.023438 12.648438 M 12.996094 12.648438 L 13.167969 12.824219 L 12.996094 12.648438 M 14.210938 12.648438 L 14.210938 13.167969 L 14.382812 13.167969 L 14.210938 12.648438 M 45.921875 12.648438 L 46.09375 12.824219 L 45.921875 12.648438 M 6.585938 12.824219 L 6.757812 12.996094 L 6.585938 12.824219 M 5.199219 12.996094 L 5.371094 13.167969 L 5.199219 12.996094 M 6.757812 12.996094 L 6.929688 13.167969 L 6.757812 12.996094 M 17.039062 13.285156 L 17.097656 13.402344 L 17.039062 13.285156 M 45.921875 13.167969 L 46.09375 13.34375 L 45.921875 13.167969 M 5.371094 13.34375 L 5.546875 13.515625 L 5.371094 13.34375 M 14.265625 13.457031 L 14.324219 13.574219 L 14.265625 13.457031 M 5.546875 13.515625 L 5.71875 13.691406 L 5.546875 13.515625 M 7.277344 13.515625 L 7.453125 13.691406 L 7.277344 13.515625 M 16.808594 13.515625 L 16.980469 13.691406 L 16.808594 13.515625 M 1.90625 13.691406 L 2.078125 13.863281 L 1.90625 13.691406 M 7.453125 13.691406 L 7.625 13.863281 L 7.453125 13.691406 M 13.054688 13.804688 L 13.113281 13.921875 L 13.054688 13.804688 M 45.921875 13.691406 L 46.09375 13.863281 L 45.921875 13.691406 M 7.796875 13.863281 L 7.972656 14.035156 L 7.796875 13.863281 M 16.636719 13.863281 L 16.808594 14.035156 L 16.636719 13.863281 M 8.144531 14.035156 L 8.316406 14.210938 L 8.144531 14.035156 M 11.378906 14.09375 L 11.496094 14.152344 L 11.378906 14.09375 M 11.839844 14.152344 L 11.898438 14.265625 L 11.839844 14.152344 M 8.664062 14.210938 L 8.664062 14.382812 L 9.183594 14.382812 L 8.664062 14.210938 M 10.222656 14.210938 L 10.222656 14.382812 L 10.917969 14.382812 L 10.222656 14.210938 M 14.730469 14.210938 L 14.902344 14.382812 L 14.730469 14.210938 M 16.117188 14.210938 L 16.289062 14.382812 L 16.117188 14.210938 M 45.921875 14.210938 L 46.09375 14.382812 L 45.921875 14.210938 M 6.410156 14.382812 L 6.585938 14.554688 L 6.410156 14.382812 M 13.167969 14.382812 L 13.34375 14.554688 L 13.167969 14.382812 M 15.074219 14.382812 L 15.074219 14.554688 L 15.941406 14.554688 L 15.074219 14.382812 M 17.15625 14.382812 L 17.15625 14.902344 L 17.328125 14.902344 L 17.15625 14.382812 M 6.585938 14.554688 L 6.757812 14.730469 L 6.585938 14.554688 M 13.34375 14.554688 L 13.515625 14.730469 L 13.34375 14.554688 M 18.367188 14.554688 L 18.542969 14.730469 L 18.367188 14.554688 M 1.90625 14.730469 L 2.078125 14.902344 L 1.90625 14.730469 M 6.929688 14.730469 L 7.105469 14.902344 L 6.929688 14.730469 M 11.957031 14.730469 L 12.128906 14.902344 L 11.957031 14.730469 M 45.921875 14.730469 L 46.09375 14.902344 L 45.921875 14.730469 M 7.277344 14.902344 L 7.453125 15.074219 L 7.277344 14.902344 M 13.691406 14.902344 L 13.863281 15.074219 L 13.691406 14.902344 M 16.460938 14.902344 L 16.636719 15.074219 L 16.460938 14.902344 M 18.425781 15.019531 L 18.484375 15.132812 L 18.425781 15.019531 M 29.804688 14.902344 L 29.804688 15.074219 L 31.363281 15.074219 L 29.804688 14.902344 M 31.539062 14.902344 L 31.539062 15.074219 L 33.097656 15.074219 L 31.539062 14.902344 M 7.738281 15.132812 L 7.855469 15.191406 L 7.738281 15.132812 M 11.378906 15.132812 L 11.496094 15.191406 L 11.378906 15.132812 M 13.863281 15.074219 L 14.035156 15.25 L 13.863281 15.074219 M 16.117188 15.074219 L 16.289062 15.25 L 16.117188 15.074219 M 28.417969 15.074219 L 28.417969 15.25 L 28.9375 15.25 L 28.417969 15.074219 M 33.964844 15.074219 L 33.964844 15.25 L 34.484375 15.25 L 33.964844 15.074219 M 8.316406 15.25 L 8.316406 15.421875 L 8.835938 15.421875 L 8.316406 15.25 M 9.011719 15.25 L 9.183594 15.421875 L 9.011719 15.25 M 10.050781 15.25 L 10.222656 15.421875 L 10.050781 15.25 M 10.398438 15.25 L 10.398438 15.421875 L 10.917969 15.421875 L 10.398438 15.25 M 14.5 15.308594 L 14.613281 15.363281 L 14.5 15.308594 M 15.710938 15.308594 L 15.828125 15.363281 L 15.710938 15.308594 M 27.667969 15.308594 L 27.785156 15.363281 L 27.667969 15.308594 M 35.121094 15.308594 L 35.234375 15.363281 L 35.121094 15.308594 M 45.921875 15.25 L 46.09375 15.421875 L 45.921875 15.25 M 26.976562 15.480469 L 27.089844 15.539062 L 26.976562 15.480469 M 35.8125 15.480469 L 35.929688 15.539062 L 35.8125 15.480469 M 26.339844 15.59375 L 26.511719 15.769531 L 26.339844 15.59375 M 36.390625 15.59375 L 36.5625 15.769531 L 36.390625 15.59375 M 1.90625 15.769531 L 2.078125 15.941406 L 1.90625 15.769531 M 25.820312 15.769531 L 25.992188 15.941406 L 25.820312 15.769531 M 36.910156 15.769531 L 37.082031 15.941406 L 36.910156 15.769531 M 45.921875 15.769531 L 46.09375 15.941406 L 45.921875 15.769531 M 25.300781 15.941406 L 25.472656 16.117188 L 25.300781 15.941406 M 37.429688 15.941406 L 37.601562 16.117188 L 37.429688 15.941406 M 24.953125 16.117188 L 25.125 16.289062 L 24.953125 16.117188 M 37.777344 16.117188 L 37.949219 16.289062 L 37.777344 16.117188 M 38.296875 16.289062 L 38.46875 16.460938 L 38.296875 16.289062 M 45.921875 16.289062 L 46.09375 16.460938 L 45.921875 16.289062 M 38.585938 16.519531 L 38.699219 16.578125 L 38.585938 16.519531 M 38.988281 16.636719 L 39.164062 16.808594 L 38.988281 16.636719 M 1.90625 16.808594 L 2.078125 16.980469 L 1.90625 16.808594 M 45.921875 16.808594 L 46.09375 16.980469 L 45.921875 16.808594 M 23.21875 16.980469 L 23.394531 17.15625 L 23.21875 16.980469 M 39.507812 16.980469 L 39.683594 17.15625 L 39.507812 16.980469 M 22.875 17.15625 L 23.046875 17.328125 L 22.875 17.15625 M 39.855469 17.15625 L 40.027344 17.328125 L 39.855469 17.15625 M 45.921875 17.328125 L 46.09375 17.5 L 45.921875 17.328125 M 22.355469 17.5 L 22.527344 17.675781 L 22.355469 17.5 M 40.375 17.5 L 40.546875 17.675781 L 40.375 17.5 M 1.90625 17.847656 L 2.078125 18.023438 L 1.90625 17.847656 M 21.832031 17.847656 L 22.007812 18.023438 L 21.832031 17.847656 M 40.894531 17.847656 L 41.070312 18.023438 L 40.894531 17.847656 M 21.660156 18.023438 L 21.832031 18.195312 L 21.660156 18.023438 M 45.921875 18.023438 L 46.09375 18.195312 L 45.921875 18.023438 M 21.140625 18.367188 L 21.3125 18.542969 L 21.140625 18.367188 M 41.589844 18.367188 L 41.761719 18.542969 L 41.589844 18.367188 M 20.96875 18.542969 L 21.140625 18.714844 L 20.96875 18.542969 M 41.761719 18.542969 L 41.933594 18.714844 L 41.761719 18.542969 M 20.792969 18.714844 L 20.96875 18.886719 L 20.792969 18.714844 M 45.921875 18.714844 L 46.09375 18.886719 L 45.921875 18.714844 M 1.90625 18.886719 L 2.078125 19.0625 L 1.90625 18.886719 M 42.628906 19.234375 L 42.800781 19.40625 L 42.628906 19.234375 M 42.800781 19.40625 L 42.976562 19.582031 L 42.800781 19.40625 M 42.976562 19.582031 L 43.148438 19.753906 L 42.976562 19.582031 M 43.148438 19.753906 L 43.320312 19.929688 L 43.148438 19.753906 M 45.921875 19.753906 L 46.09375 19.929688 L 45.921875 19.753906 M 1.90625 19.929688 L 2.078125 20.101562 L 1.90625 19.929688 M 43.320312 19.929688 L 43.496094 20.101562 L 43.320312 19.929688 M 43.496094 20.101562 L 43.667969 20.273438 L 43.496094 20.101562 M 43.667969 20.273438 L 43.839844 20.449219 L 43.667969 20.273438 M 18.886719 20.621094 L 19.0625 20.792969 L 18.886719 20.621094 M 18.714844 20.792969 L 18.886719 20.96875 L 18.714844 20.792969 M 45.921875 20.792969 L 46.09375 20.96875 L 45.921875 20.792969 M 1.90625 20.96875 L 2.078125 21.140625 L 1.90625 20.96875 M 18.542969 20.96875 L 18.714844 21.140625 L 18.542969 20.96875 M 18.367188 21.140625 L 18.542969 21.3125 L 18.367188 21.140625 M 44.359375 21.140625 L 44.535156 21.3125 L 44.359375 21.140625 M 44.535156 21.3125 L 44.707031 21.488281 L 44.535156 21.3125 M 45.921875 21.488281 L 46.09375 21.660156 L 45.921875 21.488281 M 18.023438 21.660156 L 18.195312 21.832031 L 18.023438 21.660156 M 17.847656 21.832031 L 18.023438 22.007812 L 17.847656 21.832031 M 44.882812 21.832031 L 45.054688 22.007812 L 44.882812 21.832031 M 1.90625 22.007812 L 2.078125 22.179688 L 1.90625 22.007812 M 45.054688 22.007812 L 45.226562 22.179688 L 45.054688 22.007812 M 17.675781 22.179688 L 17.847656 22.355469 L 17.675781 22.179688 M 45.921875 22.179688 L 46.09375 22.355469 L 45.921875 22.179688 M 17.5 22.355469 L 17.675781 22.527344 L 17.5 22.355469 M 45.402344 22.527344 L 45.574219 22.699219 L 45.402344 22.527344 M 17.328125 22.699219 L 17.5 22.875 L 17.328125 22.699219 M 17.15625 22.875 L 17.328125 23.046875 L 17.15625 22.875 M 45.574219 22.875 L 45.746094 23.046875 L 45.574219 22.875 M 1.90625 23.046875 L 2.078125 23.21875 L 1.90625 23.046875 M 23.21875 23.046875 L 23.21875 23.21875 L 33.964844 23.21875 L 30.5 23.046875 L 23.21875 23.046875 M 45.746094 23.046875 L 45.921875 23.21875 L 45.746094 23.046875 M 16.980469 23.21875 L 17.15625 23.394531 Z M 16.980469 23.21875 "/>
<path style=" stroke:none;fill-rule:nonzero;fill:rgb(100%,100%,100%);fill-opacity:1;" d="M 23.21875 23.21875 L 23.21875 33.617188 L 24.261719 32.75 L 24.261719 33.445312 L 24.78125 33.445312 L 24.605469 32.40625 C 27.542969 31.707031 31.121094 32.230469 34.136719 32.230469 L 33.964844 33.269531 L 35.523438 33.445312 L 35.695312 38.296875 L 34.832031 38.816406 L 36.738281 38.816406 L 36.738281 38.46875 L 36.042969 38.46875 L 36.042969 33.445312 L 37.601562 33.445312 L 37.777344 32.058594 L 39.683594 32.058594 L 39.683594 32.925781 L 40.203125 32.925781 L 40.203125 30.84375 L 39.683594 30.84375 L 39.683594 31.710938 L 37.601562 31.710938 L 37.601562 30.324219 L 36.042969 30.324219 L 36.042969 25.472656 L 36.738281 25.472656 L 36.738281 24.953125 L 35.695312 24.953125 C 35.695312 26.722656 36.546875 30.296875 34.136719 30.324219 L 34.136719 31.710938 L 25.472656 31.710938 L 32.058594 24.953125 L 32.230469 25.472656 L 33.097656 25.472656 L 33.097656 24.953125 L 32.230469 24.953125 L 33.789062 23.21875 Z M 23.21875 23.21875 "/>
<path style=" stroke:none;fill-rule:nonzero;fill:rgb(81.960784%,89.019608%,61.568627%);fill-opacity:1;" d="M 33.617188 23.394531 L 33.789062 23.566406 L 33.617188 23.394531 M 45.921875 23.394531 L 46.09375 23.566406 L 45.921875 23.394531 M 16.808594 23.566406 L 16.980469 23.738281 L 16.808594 23.566406 M 33.269531 23.738281 L 33.445312 23.914062 L 33.269531 23.738281 M 16.636719 23.914062 L 16.808594 24.085938 L 16.636719 23.914062 M 24.085938 23.914062 L 24.085938 24.085938 L 25.125 24.085938 L 25.300781 24.78125 L 25.644531 24.78125 L 26.339844 24.085938 L 26.339844 23.914062 L 25.472656 24.605469 L 24.085938 23.914062 M 26.6875 23.914062 L 26.6875 24.085938 L 27.550781 24.085938 L 26.6875 23.914062 M 27.898438 23.914062 L 27.898438 24.085938 L 29.976562 24.085938 L 27.898438 23.914062 M 30.152344 24.085938 L 30.152344 24.261719 L 31.710938 24.085938 L 30.152344 24.085938 M 1.90625 24.085938 L 2.078125 24.261719 Z M 1.90625 24.085938 "/>
<path style=" stroke:none;fill-rule:nonzero;fill:rgb(63.137255%,77.254902%,23.137255%);fill-opacity:1;" d="M 24.085938 24.085938 L 24.085938 31.539062 C 26.621094 29.753906 29.921875 26.628906 31.710938 24.085938 C 30.683594 24.085938 28.285156 23.753906 27.726562 24.605469 C 27.410156 24.171875 27.074219 23.988281 26.6875 24.433594 L 26.339844 24.433594 L 25.820312 24.085938 L 25.644531 24.78125 L 25.300781 24.78125 L 25.125 24.085938 Z M 24.085938 24.085938 "/>
<path style=" stroke:none;fill-rule:nonzero;fill:rgb(81.960784%,89.019608%,61.568627%);fill-opacity:1;" d="M 32.925781 24.085938 L 33.097656 24.261719 L 32.925781 24.085938 M 16.460938 24.261719 L 16.636719 24.433594 L 16.460938 24.261719 M 26.453125 24.316406 L 26.570312 24.375 L 26.453125 24.316406 M 27.726562 24.433594 L 27.898438 24.605469 L 27.726562 24.433594 M 32.578125 24.433594 L 32.75 24.605469 L 32.578125 24.433594 M 16.289062 24.605469 L 16.460938 24.78125 L 16.289062 24.605469 M 32.230469 24.78125 L 32.40625 24.953125 L 32.230469 24.78125 M 35.871094 24.78125 L 36.042969 24.953125 L 35.871094 24.78125 M 16.117188 24.953125 L 16.289062 25.125 Z M 16.117188 24.953125 "/>
<path style=" stroke:none;fill-rule:nonzero;fill:rgb(100%,100%,100%);fill-opacity:1;" d="M 33.445312 24.953125 L 33.445312 25.472656 L 34.308594 25.472656 L 34.308594 24.953125 L 33.445312 24.953125 M 34.65625 24.953125 L 34.65625 25.472656 L 35.523438 25.472656 L 35.523438 24.953125 Z M 34.65625 24.953125 "/>
<path style=" stroke:none;fill-rule:nonzero;fill:rgb(81.960784%,89.019608%,61.568627%);fill-opacity:1;" d="M 35.523438 24.953125 L 35.523438 30.152344 L 35.695312 30.152344 Z M 35.523438 24.953125 "/>
<path style=" stroke:none;fill-rule:nonzero;fill:rgb(100%,100%,100%);fill-opacity:1;" d="M 37.082031 24.953125 L 37.082031 25.472656 L 37.949219 25.472656 L 37.949219 24.953125 L 37.082031 24.953125 M 38.296875 24.953125 L 38.296875 25.472656 L 39.164062 25.472656 L 39.164062 24.953125 L 38.296875 24.953125 M 39.507812 24.953125 L 40.203125 25.644531 L 40.203125 24.953125 Z M 39.507812 24.953125 "/>
<path style=" stroke:none;fill-rule:nonzero;fill:rgb(81.960784%,89.019608%,61.568627%);fill-opacity:1;" d="M 1.90625 25.125 L 2.078125 25.300781 L 1.90625 25.125 M 31.882812 25.125 L 32.058594 25.300781 L 31.882812 25.125 M 15.941406 25.472656 L 16.117188 25.644531 L 15.941406 25.472656 M 36.042969 25.472656 L 36.042969 30.324219 L 36.214844 30.324219 L 36.042969 25.472656 M 25.125 25.644531 L 25.125 29.457031 L 25.300781 29.457031 Z M 25.125 25.644531 "/>
<path style=" stroke:none;fill-rule:nonzero;fill:rgb(100%,100%,100%);fill-opacity:1;" d="M 25.300781 25.644531 L 25.300781 29.285156 L 28.9375 25.644531 Z M 25.300781 25.644531 "/>
<path style=" stroke:none;fill-rule:nonzero;fill:rgb(81.960784%,89.019608%,61.568627%);fill-opacity:1;" d="M 28.9375 25.644531 L 29.113281 25.820312 L 28.9375 25.644531 M 15.828125 25.933594 L 15.882812 26.050781 L 15.828125 25.933594 M 28.765625 25.820312 L 28.9375 25.992188 L 28.765625 25.820312 M 28.59375 25.992188 L 28.765625 26.167969 Z M 28.59375 25.992188 "/>
<path style=" stroke:none;fill-rule:nonzero;fill:rgb(100%,100%,100%);fill-opacity:1;" d="M 39.683594 25.992188 L 39.683594 26.859375 L 40.203125 26.859375 L 40.203125 25.992188 Z M 39.683594 25.992188 "/>
<path style=" stroke:none;fill-rule:nonzero;fill:rgb(81.960784%,89.019608%,61.568627%);fill-opacity:1;" d="M 1.90625 26.167969 L 2.078125 26.339844 L 1.90625 26.167969 M 25.644531 26.167969 L 25.644531 28.246094 L 25.820312 28.246094 Z M 25.644531 26.167969 "/>
<path style=" stroke:none;fill-rule:nonzero;fill:rgb(63.137255%,77.254902%,23.137255%);fill-opacity:1;" d="M 25.820312 26.167969 L 25.820312 28.070312 L 27.726562 26.167969 Z M 25.820312 26.167969 "/>
<path style=" stroke:none;fill-rule:nonzero;fill:rgb(81.960784%,89.019608%,61.568627%);fill-opacity:1;" d="M 28.417969 26.167969 L 28.59375 26.339844 L 28.417969 26.167969 M 15.652344 26.453125 L 15.710938 26.570312 L 15.652344 26.453125 M 28.246094 26.339844 L 28.417969 26.511719 L 28.246094 26.339844 M 28.070312 26.511719 L 28.246094 26.6875 L 28.070312 26.511719 M 27.898438 26.6875 L 28.070312 26.859375 L 27.898438 26.6875 M 27.726562 26.859375 L 27.898438 27.03125 L 27.726562 26.859375 M 15.421875 27.03125 L 15.59375 27.207031 L 15.421875 27.03125 M 27.550781 27.03125 L 27.726562 27.207031 L 27.550781 27.03125 M 28.59375 27.03125 L 28.765625 27.207031 L 28.59375 27.03125 M 1.90625 27.207031 L 2.078125 27.378906 L 1.90625 27.207031 M 27.378906 27.207031 L 27.550781 27.378906 Z M 27.378906 27.207031 "/>
<path style=" stroke:none;fill-rule:nonzero;fill:rgb(100%,100%,100%);fill-opacity:1;" d="M 39.683594 27.207031 L 39.683594 28.070312 L 40.203125 28.070312 L 40.203125 27.207031 Z M 39.683594 27.207031 "/>
<path style=" stroke:none;fill-rule:nonzero;fill:rgb(81.960784%,89.019608%,61.568627%);fill-opacity:1;" d="M 28.246094 27.378906 L 28.417969 27.550781 L 28.246094 27.378906 M 27.03125 27.550781 L 27.207031 27.726562 L 27.03125 27.550781 M 15.308594 27.839844 L 15.363281 27.957031 L 15.308594 27.839844 M 27.898438 27.726562 L 28.070312 27.898438 L 27.898438 27.726562 M 26.6875 27.898438 L 26.859375 28.070312 L 26.6875 27.898438 M 27.550781 28.070312 L 27.726562 28.246094 L 27.550781 28.070312 M 1.90625 28.246094 L 2.078125 28.417969 L 1.90625 28.246094 M 26.339844 28.246094 L 26.511719 28.417969 L 26.339844 28.246094 M 27.378906 28.246094 L 27.550781 28.417969 L 27.378906 28.246094 M 27.207031 28.417969 L 27.378906 28.59375 Z M 27.207031 28.417969 "/>
<path style=" stroke:none;fill-rule:nonzero;fill:rgb(100%,100%,100%);fill-opacity:1;" d="M 39.683594 28.417969 L 39.683594 29.285156 L 40.203125 29.285156 L 40.203125 28.417969 Z M 39.683594 28.417969 "/>
<path style=" stroke:none;fill-rule:nonzero;fill:rgb(81.960784%,89.019608%,61.568627%);fill-opacity:1;" d="M 15.074219 28.59375 L 15.074219 29.113281 L 15.25 29.113281 L 15.074219 28.59375 M 27.03125 28.59375 L 27.207031 28.765625 L 27.03125 28.59375 M 26.859375 28.765625 L 27.03125 28.9375 L 26.859375 28.765625 M 26.6875 28.9375 L 26.859375 29.113281 L 26.6875 28.9375 M 26.511719 29.113281 L 26.6875 29.285156 L 26.511719 29.113281 M 1.90625 29.285156 L 2.078125 29.457031 L 1.90625 29.285156 M 26.339844 29.285156 L 26.511719 29.457031 L 26.339844 29.285156 M 26.167969 29.457031 L 26.339844 29.632812 L 26.167969 29.457031 M 25.992188 29.632812 L 26.167969 29.804688 Z M 25.992188 29.632812 "/>
<path style=" stroke:none;fill-rule:nonzero;fill:rgb(100%,100%,100%);fill-opacity:1;" d="M 39.683594 29.632812 L 39.683594 30.5 L 40.203125 30.5 L 40.203125 29.632812 Z M 39.683594 29.632812 "/>
<path style=" stroke:none;fill-rule:nonzero;fill:rgb(81.960784%,89.019608%,61.568627%);fill-opacity:1;" d="M 25.820312 29.804688 L 25.992188 29.976562 L 25.820312 29.804688 M 14.902344 29.976562 L 14.902344 32.75 L 15.074219 32.75 L 14.902344 29.976562 M 25.644531 29.976562 L 25.820312 30.152344 L 25.644531 29.976562 M 25.472656 30.152344 L 25.644531 30.324219 L 25.472656 30.152344 M 1.90625 30.324219 L 2.078125 30.5 L 1.90625 30.324219 M 25.300781 30.324219 L 25.472656 30.5 L 25.300781 30.324219 M 25.125 30.5 L 25.300781 30.671875 L 25.125 30.5 M 33.964844 30.5 L 33.617188 31.539062 L 33.617188 31.710938 C 34.242188 31.578125 34.25 30.996094 33.964844 30.5 M 24.953125 30.671875 L 25.125 30.84375 L 24.953125 30.671875 M 24.78125 30.84375 L 24.953125 31.019531 L 24.78125 30.84375 M 34.484375 30.84375 L 34.484375 31.882812 L 34.65625 31.882812 Z M 34.484375 30.84375 "/>
<path style=" stroke:none;fill-rule:nonzero;fill:rgb(63.137255%,77.254902%,23.137255%);fill-opacity:1;" d="M 34.65625 30.84375 L 34.65625 32.925781 L 37.082031 32.925781 L 37.082031 30.84375 Z M 34.65625 30.84375 "/>
<path style=" stroke:none;fill-rule:nonzero;fill:rgb(81.960784%,89.019608%,61.568627%);fill-opacity:1;" d="M 24.605469 31.019531 L 24.78125 31.191406 L 24.605469 31.019531 M 24.433594 31.191406 L 24.605469 31.363281 L 24.433594 31.191406 M 25.644531 31.191406 L 25.820312 31.363281 L 25.644531 31.191406 M 1.90625 31.363281 L 2.078125 31.539062 L 1.90625 31.363281 M 24.261719 31.363281 L 24.433594 31.539062 L 24.261719 31.363281 M 24.085938 31.539062 L 24.261719 31.710938 L 24.085938 31.539062 M 25.472656 31.539062 L 25.644531 31.710938 L 25.472656 31.539062 M 25.933594 31.59375 L 26.050781 31.652344 L 25.933594 31.59375 M 26.453125 31.59375 L 26.570312 31.652344 L 26.453125 31.59375 M 26.976562 31.59375 L 27.089844 31.652344 L 26.976562 31.59375 M 27.496094 31.59375 L 27.609375 31.652344 L 27.496094 31.59375 M 28.015625 31.59375 L 28.128906 31.652344 L 28.015625 31.59375 M 28.535156 31.59375 L 28.648438 31.652344 L 28.535156 31.59375 M 29.054688 31.59375 L 29.167969 31.652344 L 29.054688 31.59375 M 29.574219 31.59375 L 29.691406 31.652344 L 29.574219 31.59375 M 30.09375 31.59375 L 30.210938 31.652344 L 30.09375 31.59375 M 30.613281 31.59375 L 30.730469 31.652344 L 30.613281 31.59375 M 31.132812 31.59375 L 31.25 31.652344 L 31.132812 31.59375 M 31.652344 31.59375 L 31.769531 31.652344 L 31.652344 31.59375 M 32.171875 31.59375 L 32.289062 31.652344 L 32.171875 31.59375 M 32.691406 31.59375 L 32.808594 31.652344 L 32.691406 31.59375 M 33.214844 31.59375 L 33.328125 31.652344 L 33.214844 31.59375 M 37.601562 31.539062 L 37.601562 31.710938 L 38.121094 31.710938 L 37.601562 31.539062 M 38.410156 31.59375 L 38.527344 31.652344 L 38.410156 31.59375 M 38.929688 31.59375 L 39.046875 31.652344 L 38.929688 31.59375 M 39.453125 31.59375 L 39.566406 31.652344 L 39.453125 31.59375 M 35.523438 31.710938 L 36.042969 32.230469 L 36.042969 32.058594 Z M 35.523438 31.710938 "/>
<path style=" stroke:none;fill-rule:nonzero;fill:rgb(100%,100%,100%);fill-opacity:1;" d="M 35.695312 31.710938 L 35.695312 32.058594 L 36.042969 32.058594 L 36.042969 31.710938 Z M 35.695312 31.710938 "/>
<path style=" stroke:none;fill-rule:nonzero;fill:rgb(81.960784%,89.019608%,61.568627%);fill-opacity:1;" d="M 34.484375 32.058594 L 34.484375 32.925781 L 34.65625 32.925781 L 34.484375 32.058594 M 37.777344 32.058594 L 37.949219 32.230469 L 37.777344 32.058594 M 38.121094 32.058594 L 38.296875 32.230469 L 38.121094 32.058594 M 38.46875 32.058594 L 38.644531 32.230469 L 38.46875 32.058594 M 38.816406 32.058594 L 38.988281 32.230469 L 38.816406 32.058594 M 39.164062 32.058594 L 39.335938 32.230469 L 39.164062 32.058594 M 39.507812 32.058594 L 39.683594 32.230469 L 39.507812 32.058594 M 24.605469 32.40625 L 24.261719 33.617188 L 24.78125 33.789062 L 24.261719 34.484375 L 24.261719 34.65625 C 24.710938 35.148438 24.710938 35.378906 24.261719 35.871094 L 24.78125 36.042969 L 24.261719 36.910156 C 24.710938 37.402344 24.710938 37.628906 24.261719 38.121094 L 24.261719 38.296875 L 24.78125 38.121094 L 24.953125 38.816406 L 24.261719 38.816406 L 24.261719 38.988281 L 29.632812 38.988281 L 29.632812 38.816406 L 28.9375 38.816406 L 29.113281 38.296875 L 29.632812 38.296875 C 30.265625 39.441406 34.300781 39.375 35.003906 38.296875 L 35.695312 38.296875 L 35.523438 33.445312 L 33.964844 33.269531 L 34.136719 32.230469 C 31.226562 32.230469 27.394531 31.578125 24.605469 32.40625 M 1.90625 32.40625 L 2.078125 32.578125 L 1.90625 32.40625 M 24.433594 32.578125 L 24.605469 32.75 L 24.433594 32.578125 M 24.085938 32.75 L 24.261719 32.925781 L 24.085938 32.75 M 14.902344 32.925781 L 15.074219 33.097656 L 14.902344 32.925781 M 23.914062 32.925781 L 24.085938 33.097656 L 23.914062 32.925781 M 34.65625 32.925781 L 34.65625 33.097656 L 35.695312 33.097656 L 34.65625 32.925781 M 35.871094 32.925781 L 35.871094 33.097656 L 37.082031 33.097656 L 35.871094 32.925781 M 39.683594 32.925781 L 39.683594 33.097656 L 40.203125 33.097656 L 39.683594 32.925781 M 23.738281 33.097656 L 23.914062 33.269531 L 23.738281 33.097656 M 23.566406 33.269531 L 23.738281 33.445312 L 23.566406 33.269531 M 39.683594 33.269531 L 39.855469 33.445312 Z M 39.683594 33.269531 "/>
<path style=" stroke:none;fill-rule:nonzero;fill:rgb(100%,100%,100%);fill-opacity:1;" d="M 39.855469 33.269531 L 39.683594 34.136719 L 40.203125 34.136719 Z M 39.855469 33.269531 "/>
<path style=" stroke:none;fill-rule:nonzero;fill:rgb(81.960784%,89.019608%,61.568627%);fill-opacity:1;" d="M 40.027344 33.269531 L 40.203125 33.445312 L 40.027344 33.269531 M 1.90625 33.445312 L 2.078125 33.617188 L 1.90625 33.445312 M 23.394531 33.445312 L 23.566406 33.617188 L 23.394531 33.445312 M 36.042969 33.445312 L 36.042969 38.46875 L 36.738281 38.46875 L 36.738281 38.296875 L 36.214844 38.296875 L 36.214844 33.617188 L 37.429688 33.617188 L 36.042969 33.445312 M 23.21875 33.617188 L 23.394531 33.789062 Z M 23.21875 33.617188 "/>
<path style=" stroke:none;fill-rule:nonzero;fill:rgb(100%,100%,100%);fill-opacity:1;" d="M 47.828125 33.617188 C 47.6875 40.394531 40.394531 47.6875 33.617188 47.828125 L 33.617188 48 L 48 48 L 48 38.121094 Z M 47.828125 33.617188 "/>
<path style=" stroke:none;fill-rule:nonzero;fill:rgb(81.960784%,89.019608%,61.568627%);fill-opacity:1;" d="M 15.074219 33.789062 L 15.074219 34.308594 L 15.25 34.308594 Z M 15.074219 33.789062 "/>
<path style=" stroke:none;fill-rule:nonzero;fill:rgb(100%,100%,100%);fill-opacity:1;" d="M 24.261719 33.789062 L 24.433594 34.65625 L 24.605469 34.65625 L 24.78125 33.789062 Z M 24.261719 33.789062 "/>
<path style=" stroke:none;fill-rule:nonzero;fill:rgb(81.960784%,89.019608%,61.568627%);fill-opacity:1;" d="M 39.683594 34.136719 L 39.683594 34.308594 L 40.203125 34.308594 L 39.683594 34.136719 M 1.90625 34.484375 L 2.078125 34.65625 L 1.90625 34.484375 M 39.683594 34.484375 L 39.683594 34.65625 L 40.203125 34.65625 Z M 39.683594 34.484375 "/>
<path style=" stroke:none;fill-rule:nonzero;fill:rgb(100%,100%,100%);fill-opacity:1;" d="M 39.683594 34.65625 L 39.683594 35.351562 L 40.203125 35.351562 L 40.203125 34.65625 Z M 39.683594 34.65625 "/>
<path style=" stroke:none;fill-rule:nonzero;fill:rgb(81.960784%,89.019608%,61.568627%);fill-opacity:1;" d="M 15.25 34.832031 L 15.25 35.351562 L 15.421875 35.351562 Z M 15.25 34.832031 "/>
<path style=" stroke:none;fill-rule:nonzero;fill:rgb(100%,100%,100%);fill-opacity:1;" d="M 24.261719 34.832031 L 24.261719 35.695312 L 24.78125 35.695312 L 24.78125 34.832031 Z M 24.261719 34.832031 "/>
<path style=" stroke:none;fill-rule:nonzero;fill:rgb(81.960784%,89.019608%,61.568627%);fill-opacity:1;" d="M 39.683594 35.351562 L 39.683594 35.523438 L 40.203125 35.523438 L 39.683594 35.351562 M 1.90625 35.523438 L 2.078125 35.695312 L 1.90625 35.523438 M 15.480469 35.8125 L 15.539062 35.929688 L 15.480469 35.8125 M 39.683594 35.695312 L 39.683594 35.871094 L 40.203125 35.871094 Z M 39.683594 35.695312 "/>
<path style=" stroke:none;fill-rule:nonzero;fill:rgb(100%,100%,100%);fill-opacity:1;" d="M 39.683594 35.871094 L 39.683594 36.5625 L 40.203125 36.5625 L 40.203125 35.871094 L 39.683594 35.871094 M 24.261719 36.042969 L 24.261719 36.738281 L 24.78125 36.738281 L 24.78125 36.042969 Z M 24.261719 36.042969 "/>
<path style=" stroke:none;fill-rule:nonzero;fill:rgb(81.960784%,89.019608%,61.568627%);fill-opacity:1;" d="M 15.652344 36.332031 L 15.710938 36.449219 L 15.652344 36.332031 M 1.90625 36.5625 L 2.078125 36.738281 L 1.90625 36.5625 M 39.683594 36.5625 L 39.683594 36.738281 L 40.203125 36.738281 L 39.683594 36.5625 M 15.769531 36.910156 L 15.941406 37.082031 L 15.769531 36.910156 M 39.683594 36.910156 L 39.683594 37.082031 L 40.203125 37.082031 Z M 39.683594 36.910156 "/>
<path style=" stroke:none;fill-rule:nonzero;fill:rgb(100%,100%,100%);fill-opacity:1;" d="M 24.261719 37.082031 L 24.261719 37.949219 L 24.78125 37.949219 L 24.78125 37.082031 L 24.261719 37.082031 M 39.683594 37.082031 L 39.683594 37.777344 L 40.203125 37.777344 L 40.203125 37.082031 Z M 39.683594 37.082031 "/>
<path style=" stroke:none;fill-rule:nonzero;fill:rgb(81.960784%,89.019608%,61.568627%);fill-opacity:1;" d="M 16 37.371094 L 16.058594 37.488281 L 16 37.371094 M 1.90625 37.601562 L 2.078125 37.777344 L 1.90625 37.601562 M 16.117188 37.777344 L 16.289062 37.949219 L 16.117188 37.777344 M 39.683594 37.777344 L 39.683594 37.949219 L 40.203125 37.949219 L 39.683594 37.777344 M 16.289062 38.121094 L 16.460938 38.296875 Z M 16.289062 38.121094 "/>
<path style=" stroke:none;fill-rule:nonzero;fill:rgb(100%,100%,100%);fill-opacity:1;" d="M 24.261719 38.816406 L 24.953125 38.816406 L 24.78125 38.121094 Z M 24.261719 38.816406 "/>
<path style=" stroke:none;fill-rule:nonzero;fill:rgb(81.960784%,89.019608%,61.568627%);fill-opacity:1;" d="M 39.507812 38.296875 L 39.507812 38.46875 L 40.203125 38.296875 Z M 39.507812 38.296875 "/>
<path style=" stroke:none;fill-rule:nonzero;fill:rgb(100%,100%,100%);fill-opacity:1;" d="M 25.300781 38.816406 L 26.167969 38.816406 L 25.992188 38.296875 L 25.300781 38.816406 M 26.511719 38.816406 L 27.378906 38.816406 L 27.207031 38.296875 L 26.511719 38.816406 M 27.726562 38.816406 L 28.59375 38.816406 L 28.417969 38.296875 L 27.726562 38.816406 M 28.9375 38.816406 L 29.804688 38.816406 L 29.632812 38.296875 L 28.9375 38.816406 M 29.976562 38.816406 C 30.496094 38.804688 30.730469 38.824219 30.84375 38.296875 L 29.976562 38.816406 M 31.191406 38.296875 C 31.328125 38.9375 31.921875 38.9375 32.058594 38.296875 L 31.191406 38.296875 M 32.40625 38.816406 L 33.269531 38.816406 L 33.097656 38.296875 L 32.40625 38.816406 M 33.617188 38.816406 L 34.484375 38.816406 L 34.308594 38.296875 Z M 33.617188 38.816406 "/>
<path style=" stroke:none;fill-rule:nonzero;fill:rgb(81.960784%,89.019608%,61.568627%);fill-opacity:1;" d="M 37.082031 38.296875 L 37.082031 38.988281 L 38.121094 38.816406 L 38.121094 38.46875 L 37.082031 38.296875 M 38.296875 38.296875 L 38.296875 38.46875 L 39.164062 38.46875 Z M 38.296875 38.296875 "/>
<path style=" stroke:none;fill-rule:nonzero;fill:rgb(100%,100%,100%);fill-opacity:1;" d="M 39.507812 38.816406 L 40.203125 38.296875 Z M 39.507812 38.816406 "/>
<path style=" stroke:none;fill-rule:nonzero;fill:rgb(81.960784%,89.019608%,61.568627%);fill-opacity:1;" d="M 36.792969 38.585938 L 36.851562 38.699219 Z M 36.792969 38.585938 "/>
<path style=" stroke:none;fill-rule:nonzero;fill:rgb(100%,100%,100%);fill-opacity:1;" d="M 37.257812 38.46875 L 37.257812 38.816406 L 37.949219 38.816406 L 37.949219 38.46875 L 37.257812 38.46875 M 38.296875 38.46875 L 38.296875 38.816406 L 39.164062 38.816406 L 39.164062 38.46875 Z M 38.296875 38.46875 "/>
<path style=" stroke:none;fill-rule:nonzero;fill:rgb(81.960784%,89.019608%,61.568627%);fill-opacity:1;" d="M 1.90625 38.644531 L 2.078125 38.816406 L 1.90625 38.644531 M 34.832031 38.816406 L 34.832031 38.988281 L 35.695312 38.988281 L 34.832031 38.816406 M 35.871094 38.816406 L 35.871094 38.988281 L 36.738281 38.988281 L 35.871094 38.816406 M 38.296875 38.816406 L 38.296875 38.988281 L 39.164062 38.988281 L 38.296875 38.816406 M 39.507812 38.816406 L 39.507812 38.988281 L 40.203125 38.988281 L 39.507812 38.816406 M 16.808594 39.164062 L 16.980469 39.335938 L 16.808594 39.164062 M 16.980469 39.507812 L 17.15625 39.683594 L 16.980469 39.507812 M 1.90625 39.683594 L 2.078125 39.855469 L 1.90625 39.683594 M 17.15625 39.855469 L 17.328125 40.027344 L 17.15625 39.855469 M 17.5 40.375 L 17.675781 40.546875 L 17.5 40.375 M 1.90625 40.722656 L 2.078125 40.894531 L 1.90625 40.722656 M 17.847656 40.894531 L 18.023438 41.070312 L 17.847656 40.894531 M 18.023438 41.070312 L 18.195312 41.242188 L 18.023438 41.070312 M 18.367188 41.589844 L 18.542969 41.761719 L 18.367188 41.589844 M 1.90625 41.761719 L 2.078125 41.933594 L 1.90625 41.761719 M 18.542969 41.761719 L 18.714844 41.933594 L 18.542969 41.761719 M 1.90625 42.800781 L 2.078125 42.976562 L 1.90625 42.800781 M 19.40625 42.800781 L 19.582031 42.976562 L 19.40625 42.800781 M 19.753906 43.148438 L 19.929688 43.320312 L 19.753906 43.148438 M 20.101562 43.496094 L 20.273438 43.667969 L 20.101562 43.496094 M 1.90625 43.839844 L 2.078125 44.015625 L 1.90625 43.839844 M 20.96875 44.1875 L 21.140625 44.359375 L 20.96875 44.1875 M 1.90625 44.359375 L 2.078125 44.535156 L 1.90625 44.359375 M 21.140625 44.359375 L 21.3125 44.535156 L 21.140625 44.359375 M 21.3125 44.535156 L 21.488281 44.707031 L 21.3125 44.535156 M 1.964844 44.824219 L 2.023438 44.9375 L 1.964844 44.824219 M 21.832031 44.882812 L 22.007812 45.054688 L 21.832031 44.882812 M 22.007812 45.054688 L 22.179688 45.226562 L 22.007812 45.054688 M 2.078125 45.226562 L 2.253906 45.402344 L 2.078125 45.226562 M 22.355469 45.226562 L 22.527344 45.402344 L 22.355469 45.226562 M 22.527344 45.402344 L 22.699219 45.574219 L 22.527344 45.402344 M 2.425781 45.574219 L 2.597656 45.746094 L 2.425781 45.574219 M 22.875 45.574219 L 23.046875 45.746094 L 22.875 45.574219 M 2.597656 45.746094 L 2.773438 45.921875 L 2.597656 45.746094 M 23.046875 45.746094 L 23.21875 45.921875 Z M 23.046875 45.746094 "/>
<path style=" stroke:none;fill-rule:nonzero;fill:rgb(100%,100%,100%);fill-opacity:1;" d="M 0 45.921875 L 0 48 L 2.078125 48 L 2.078125 47.828125 Z M 0 45.921875 "/>
<path style=" stroke:none;fill-rule:nonzero;fill:rgb(81.960784%,89.019608%,61.568627%);fill-opacity:1;" d="M 3.117188 45.921875 L 3.117188 46.09375 L 3.640625 46.09375 L 3.117188 45.921875 M 22.355469 45.921875 L 22.527344 46.09375 L 22.355469 45.921875 M 23.394531 45.921875 L 23.566406 46.09375 Z M 23.394531 45.921875 "/>
</g>
</svg>
